<?xml version="1.0" encoding="UTF-8"?>
<svg width="512" height="512" viewBox="0 0 512 512" xmlns="http://www.w3.org/2000/svg">
  <defs>
    <linearGradient id="bg" x1="64" y1="48" x2="448" y2="464" gradientUnits="userSpaceOnUse">
      <stop offset="0" stop-color="#4a7ef0"/>
      <stop offset="1" stop-color="#8b3fbf"/>
    </linearGradient>
    <radialGradient id="glow" cx="200" cy="150" r="320" gradientUnits="userSpaceOnUse">
      <stop offset="0" stop-color="#ffffff" stop-opacity="0.22"/>
      <stop offset="1" stop-color="#ffffff" stop-opacity="0"/>
    </radialGradient>
    <filter id="soft" x="-20%" y="-20%" width="140%" height="140%">
      <feDropShadow dx="0" dy="6" stdDeviation="10" flood-color="#000000" flood-opacity="0.18"/>
    </filter>
  </defs>
  <rect x="24" y="24" width="464" height="464" rx="112" fill="url(#bg)"/>
  <rect x="24" y="24" width="464" height="464" rx="112" fill="url(#glow)"/>
  <g filter="url(#soft)">
    <path d="M112 184 a44 44 0 0 1 44-44 h200 a44 44 0 0 1 44 44 v112 a44 44 0 0 1 -44 44 h-152 l-52 46 v-46 h4 a44 44 0 0 1 -44 -44 z" fill="#ffffff"/>
  </g>
  <circle cx="192" cy="240" r="24" fill="#2ec27e"/>
  <circle cx="256" cy="240" r="24" fill="#4a7ef0"/>
  <circle cx="320" cy="240" r="24" fill="#8b3fbf"/>
  <circle cx="392" cy="150" r="46" fill="#e01b24" stroke="url(#bg)" stroke-width="10"/>
</svg>
